<mxfile host="www.draw.io" modified="2019-12-06T11:42:20.162Z" agent="Mozilla/5.0 (Windows NT 10.0; Win64; x64) AppleWebKit/537.36 (KHTML, like Gecko) Chrome/78.0.3904.108 Safari/537.36" etag="i5JWefEOrf7DT8Y_Z1Ve" version="12.3.7" type="github" pages="1">
  <diagram id="6a731a19-8d31-9384-78a2-239565b7b9f0" name="Page-1">
    <mxGraphModel dx="1220" dy="3099" grid="1" gridSize="10" guides="1" tooltips="1" connect="1" arrows="1" fold="1" page="1" pageScale="1" pageWidth="1654" pageHeight="1169" background="#ffffff" math="0" shadow="0">
      <root>
        <mxCell id="0"/>
        <mxCell id="1" parent="0"/>
        <mxCell id="DbCk00pHNb_Lc_L89BAW-57" style="edgeStyle=orthogonalEdgeStyle;rounded=0;orthogonalLoop=1;jettySize=auto;html=1;exitX=0.5;exitY=1;exitDx=0;exitDy=0;exitPerimeter=0;entryX=0.5;entryY=0;entryDx=0;entryDy=0;entryPerimeter=0;" parent="1" source="DbCk00pHNb_Lc_L89BAW-55" target="DbCk00pHNb_Lc_L89BAW-56" edge="1">
          <mxGeometry relative="1" as="geometry"/>
        </mxCell>
        <mxCell id="DbCk00pHNb_Lc_L89BAW-55" value="start" style="shape=mxgraph.flowchart.terminator;strokeWidth=2;gradientColor=none;gradientDirection=north;fontStyle=0;html=1;" parent="1" vertex="1">
          <mxGeometry x="261" y="-1546" width="120" height="30" as="geometry"/>
        </mxCell>
        <mxCell id="DbCk00pHNb_Lc_L89BAW-63" value="Y" style="edgeStyle=orthogonalEdgeStyle;rounded=0;orthogonalLoop=1;jettySize=auto;html=1;exitX=0.5;exitY=1;exitDx=0;exitDy=0;exitPerimeter=0;entryX=0.5;entryY=0;entryDx=0;entryDy=0;entryPerimeter=0;" parent="1" source="DbCk00pHNb_Lc_L89BAW-56" target="DbCk00pHNb_Lc_L89BAW-62" edge="1">
          <mxGeometry relative="1" as="geometry"/>
        </mxCell>
        <mxCell id="DbCk00pHNb_Lc_L89BAW-83" value="N" style="edgeStyle=orthogonalEdgeStyle;rounded=0;orthogonalLoop=1;jettySize=auto;html=1;exitX=0;exitY=0.5;exitDx=0;exitDy=0;exitPerimeter=0;" parent="1" source="DbCk00pHNb_Lc_L89BAW-56" target="DbCk00pHNb_Lc_L89BAW-82" edge="1">
          <mxGeometry relative="1" as="geometry"/>
        </mxCell>
        <mxCell id="DbCk00pHNb_Lc_L89BAW-56" value="开铺&lt;br&gt;&amp;amp; 收银员登录" style="shape=mxgraph.flowchart.decision;strokeWidth=2;gradientColor=none;gradientDirection=north;fontStyle=0;html=1;" parent="1" vertex="1">
          <mxGeometry x="262" y="-1486" width="119" height="70" as="geometry"/>
        </mxCell>
        <mxCell id="DbCk00pHNb_Lc_L89BAW-62" value="锁定订单" style="shape=mxgraph.flowchart.decision;strokeWidth=2;gradientColor=none;gradientDirection=north;fontStyle=0;html=1;" parent="1" vertex="1">
          <mxGeometry x="262" y="-1396" width="119" height="70" as="geometry"/>
        </mxCell>
        <mxCell id="DbCk00pHNb_Lc_L89BAW-67" value="Y" style="edgeStyle=orthogonalEdgeStyle;rounded=0;orthogonalLoop=1;jettySize=auto;html=1;exitX=0.5;exitY=1;exitDx=0;exitDy=0;exitPerimeter=0;entryX=0.5;entryY=0;entryDx=0;entryDy=0;entryPerimeter=0;" parent="1" target="DbCk00pHNb_Lc_L89BAW-68" edge="1">
          <mxGeometry relative="1" as="geometry">
            <mxPoint x="322" y="-1326" as="sourcePoint"/>
          </mxGeometry>
        </mxCell>
        <mxCell id="DbCk00pHNb_Lc_L89BAW-68" value="控制授权" style="shape=mxgraph.flowchart.decision;strokeWidth=2;gradientColor=none;gradientDirection=north;fontStyle=0;html=1;" parent="1" vertex="1">
          <mxGeometry x="262" y="-1306" width="119" height="70" as="geometry"/>
        </mxCell>
        <mxCell id="DbCk00pHNb_Lc_L89BAW-71" value="Y" style="edgeStyle=orthogonalEdgeStyle;rounded=0;orthogonalLoop=1;jettySize=auto;html=1;exitX=0.5;exitY=1;exitDx=0;exitDy=0;exitPerimeter=0;entryX=0.5;entryY=0;entryDx=0;entryDy=0;entryPerimeter=0;" parent="1" target="DbCk00pHNb_Lc_L89BAW-72" edge="1">
          <mxGeometry relative="1" as="geometry">
            <mxPoint x="321" y="-1236" as="sourcePoint"/>
          </mxGeometry>
        </mxCell>
        <mxCell id="DbCk00pHNb_Lc_L89BAW-90" value="N" style="edgeStyle=orthogonalEdgeStyle;rounded=0;orthogonalLoop=1;jettySize=auto;html=1;exitX=1;exitY=0.5;exitDx=0;exitDy=0;exitPerimeter=0;entryX=0.5;entryY=0;entryDx=0;entryDy=0;entryPerimeter=0;" parent="1" source="DbCk00pHNb_Lc_L89BAW-72" target="DbCk00pHNb_Lc_L89BAW-79" edge="1">
          <mxGeometry relative="1" as="geometry">
            <Array as="points">
              <mxPoint x="400" y="-1181"/>
              <mxPoint x="400" y="-1046"/>
              <mxPoint x="321" y="-1046"/>
            </Array>
          </mxGeometry>
        </mxCell>
        <mxCell id="DbCk00pHNb_Lc_L89BAW-72" value="雅座会员" style="shape=mxgraph.flowchart.decision;strokeWidth=2;gradientColor=none;gradientDirection=north;fontStyle=0;html=1;" parent="1" vertex="1">
          <mxGeometry x="261" y="-1216" width="119" height="70" as="geometry"/>
        </mxCell>
        <mxCell id="DbCk00pHNb_Lc_L89BAW-75" value="Y" style="edgeStyle=orthogonalEdgeStyle;rounded=0;orthogonalLoop=1;jettySize=auto;html=1;exitX=0.5;exitY=1;exitDx=0;exitDy=0;exitPerimeter=0;entryX=0.5;entryY=0;entryDx=0;entryDy=0;entryPerimeter=0;" parent="1" target="DbCk00pHNb_Lc_L89BAW-76" edge="1">
          <mxGeometry relative="1" as="geometry">
            <mxPoint x="321" y="-1146" as="sourcePoint"/>
          </mxGeometry>
        </mxCell>
        <mxCell id="DbCk00pHNb_Lc_L89BAW-81" value="Y" style="edgeStyle=orthogonalEdgeStyle;rounded=0;orthogonalLoop=1;jettySize=auto;html=1;exitX=0.5;exitY=1;exitDx=0;exitDy=0;exitPerimeter=0;entryX=0.5;entryY=0;entryDx=0;entryDy=0;entryPerimeter=0;" parent="1" source="DbCk00pHNb_Lc_L89BAW-76" target="DbCk00pHNb_Lc_L89BAW-79" edge="1">
          <mxGeometry relative="1" as="geometry"/>
        </mxCell>
        <mxCell id="DbCk00pHNb_Lc_L89BAW-76" value="控制DLL" style="shape=mxgraph.flowchart.decision;strokeWidth=2;gradientColor=none;gradientDirection=north;fontStyle=0;html=1;" parent="1" vertex="1">
          <mxGeometry x="261" y="-1126" width="119" height="70" as="geometry"/>
        </mxCell>
        <mxCell id="DbCk00pHNb_Lc_L89BAW-93" style="edgeStyle=orthogonalEdgeStyle;rounded=0;orthogonalLoop=1;jettySize=auto;html=1;exitX=0.5;exitY=0.9;exitDx=0;exitDy=0;exitPerimeter=0;entryX=0.5;entryY=0;entryDx=0;entryDy=0;entryPerimeter=0;" parent="1" source="DbCk00pHNb_Lc_L89BAW-79" target="DbCk00pHNb_Lc_L89BAW-92" edge="1">
          <mxGeometry relative="1" as="geometry">
            <Array as="points">
              <mxPoint x="321" y="-910"/>
              <mxPoint x="445" y="-910"/>
              <mxPoint x="445" y="-1546"/>
              <mxPoint x="560" y="-1546"/>
            </Array>
          </mxGeometry>
        </mxCell>
        <mxCell id="DbCk00pHNb_Lc_L89BAW-79" value="取消订单" style="shape=mxgraph.flowchart.document;strokeWidth=2;gradientColor=none;gradientDirection=north;fontStyle=0;html=1;" parent="1" vertex="1">
          <mxGeometry x="241.5" y="-1026" width="159" height="90" as="geometry"/>
        </mxCell>
        <mxCell id="DbCk00pHNb_Lc_L89BAW-82" value="end" style="shape=mxgraph.flowchart.terminator;strokeWidth=2;gradientColor=none;gradientDirection=north;fontStyle=0;html=1;" parent="1" vertex="1">
          <mxGeometry x="91" y="-1466" width="120" height="30" as="geometry"/>
        </mxCell>
        <mxCell id="DbCk00pHNb_Lc_L89BAW-84" value="N" style="edgeStyle=orthogonalEdgeStyle;rounded=0;orthogonalLoop=1;jettySize=auto;html=1;exitX=0;exitY=0.5;exitDx=0;exitDy=0;exitPerimeter=0;" parent="1" target="DbCk00pHNb_Lc_L89BAW-85" edge="1">
          <mxGeometry relative="1" as="geometry">
            <mxPoint x="262" y="-1361" as="sourcePoint"/>
          </mxGeometry>
        </mxCell>
        <mxCell id="DbCk00pHNb_Lc_L89BAW-85" value="end" style="shape=mxgraph.flowchart.terminator;strokeWidth=2;gradientColor=none;gradientDirection=north;fontStyle=0;html=1;" parent="1" vertex="1">
          <mxGeometry x="91" y="-1376" width="120" height="30" as="geometry"/>
        </mxCell>
        <mxCell id="DbCk00pHNb_Lc_L89BAW-86" value="N" style="edgeStyle=orthogonalEdgeStyle;rounded=0;orthogonalLoop=1;jettySize=auto;html=1;exitX=0;exitY=0.5;exitDx=0;exitDy=0;exitPerimeter=0;" parent="1" target="DbCk00pHNb_Lc_L89BAW-87" edge="1">
          <mxGeometry relative="1" as="geometry">
            <mxPoint x="262" y="-1272" as="sourcePoint"/>
          </mxGeometry>
        </mxCell>
        <mxCell id="DbCk00pHNb_Lc_L89BAW-87" value="end" style="shape=mxgraph.flowchart.terminator;strokeWidth=2;gradientColor=none;gradientDirection=north;fontStyle=0;html=1;" parent="1" vertex="1">
          <mxGeometry x="91" y="-1287" width="120" height="30" as="geometry"/>
        </mxCell>
        <mxCell id="DbCk00pHNb_Lc_L89BAW-88" value="N" style="edgeStyle=orthogonalEdgeStyle;rounded=0;orthogonalLoop=1;jettySize=auto;html=1;exitX=0;exitY=0.5;exitDx=0;exitDy=0;exitPerimeter=0;" parent="1" target="DbCk00pHNb_Lc_L89BAW-89" edge="1">
          <mxGeometry relative="1" as="geometry">
            <mxPoint x="261" y="-1091" as="sourcePoint"/>
          </mxGeometry>
        </mxCell>
        <mxCell id="DbCk00pHNb_Lc_L89BAW-89" value="end" style="shape=mxgraph.flowchart.terminator;strokeWidth=2;gradientColor=none;gradientDirection=north;fontStyle=0;html=1;" parent="1" vertex="1">
          <mxGeometry x="90" y="-1106" width="120" height="30" as="geometry"/>
        </mxCell>
        <mxCell id="DbCk00pHNb_Lc_L89BAW-97" style="edgeStyle=orthogonalEdgeStyle;rounded=0;orthogonalLoop=1;jettySize=auto;html=1;exitX=0.5;exitY=1;exitDx=0;exitDy=0;exitPerimeter=0;" parent="1" source="DbCk00pHNb_Lc_L89BAW-92" target="DbCk00pHNb_Lc_L89BAW-94" edge="1">
          <mxGeometry relative="1" as="geometry"/>
        </mxCell>
        <mxCell id="DbCk00pHNb_Lc_L89BAW-92" value="生成KVS数据" style="shape=mxgraph.flowchart.data;strokeWidth=2;gradientColor=none;gradientDirection=north;fontStyle=0;html=1;" parent="1" vertex="1">
          <mxGeometry x="480" y="-1526" width="170" height="46" as="geometry"/>
        </mxCell>
        <mxCell id="DbCk00pHNb_Lc_L89BAW-99" style="edgeStyle=orthogonalEdgeStyle;rounded=0;orthogonalLoop=1;jettySize=auto;html=1;exitX=0.5;exitY=1;exitDx=0;exitDy=0;exitPerimeter=0;entryX=0.5;entryY=0;entryDx=0;entryDy=0;entryPerimeter=0;" parent="1" source="DbCk00pHNb_Lc_L89BAW-94" target="DbCk00pHNb_Lc_L89BAW-98" edge="1">
          <mxGeometry relative="1" as="geometry"/>
        </mxCell>
        <mxCell id="DbCk00pHNb_Lc_L89BAW-94" value="查询订单来源类型" style="shape=mxgraph.flowchart.data;strokeWidth=2;gradientColor=none;gradientDirection=north;fontStyle=0;html=1;" parent="1" vertex="1">
          <mxGeometry x="480" y="-1462" width="170" height="46" as="geometry"/>
        </mxCell>
        <mxCell id="DbCk00pHNb_Lc_L89BAW-101" value="Y" style="edgeStyle=orthogonalEdgeStyle;rounded=0;orthogonalLoop=1;jettySize=auto;html=1;exitX=0.5;exitY=1;exitDx=0;exitDy=0;exitPerimeter=0;entryX=0.5;entryY=0;entryDx=0;entryDy=0;entryPerimeter=0;" parent="1" source="DbCk00pHNb_Lc_L89BAW-98" target="DbCk00pHNb_Lc_L89BAW-100" edge="1">
          <mxGeometry relative="1" as="geometry"/>
        </mxCell>
        <mxCell id="DbCk00pHNb_Lc_L89BAW-102" value="N" style="edgeStyle=orthogonalEdgeStyle;rounded=0;orthogonalLoop=1;jettySize=auto;html=1;exitX=1;exitY=0.5;exitDx=0;exitDy=0;exitPerimeter=0;entryX=0.5;entryY=0;entryDx=0;entryDy=0;entryPerimeter=0;" parent="1" source="DbCk00pHNb_Lc_L89BAW-98" target="DbCk00pHNb_Lc_L89BAW-103" edge="1">
          <mxGeometry relative="1" as="geometry">
            <mxPoint x="760" y="-1210" as="targetPoint"/>
            <Array as="points">
              <mxPoint x="690" y="-1361"/>
              <mxPoint x="690" y="-1250"/>
              <mxPoint x="561" y="-1250"/>
            </Array>
          </mxGeometry>
        </mxCell>
        <mxCell id="DbCk00pHNb_Lc_L89BAW-98" value="订单来源类型：&lt;br&gt;门店点餐，微信下单，自助点餐，平台外送" style="shape=mxgraph.flowchart.decision;strokeWidth=2;gradientColor=none;gradientDirection=north;fontStyle=0;html=1;" parent="1" vertex="1">
          <mxGeometry x="501" y="-1396" width="119" height="70" as="geometry"/>
        </mxCell>
        <mxCell id="DbCk00pHNb_Lc_L89BAW-104" value="Y" style="edgeStyle=orthogonalEdgeStyle;rounded=0;orthogonalLoop=1;jettySize=auto;html=1;exitX=0.5;exitY=1;exitDx=0;exitDy=0;exitPerimeter=0;entryX=0.5;entryY=0;entryDx=0;entryDy=0;entryPerimeter=0;" parent="1" source="DbCk00pHNb_Lc_L89BAW-100" target="DbCk00pHNb_Lc_L89BAW-103" edge="1">
          <mxGeometry relative="1" as="geometry"/>
        </mxCell>
        <mxCell id="DbCk00pHNb_Lc_L89BAW-100" value="有未知在线交易记录，&lt;br&gt;不能取消" style="shape=mxgraph.flowchart.data;strokeWidth=2;gradientColor=none;gradientDirection=north;fontStyle=0;html=1;" parent="1" vertex="1">
          <mxGeometry x="475" y="-1300" width="170" height="46" as="geometry"/>
        </mxCell>
        <mxCell id="DbCk00pHNb_Lc_L89BAW-106" value="异常" style="edgeStyle=orthogonalEdgeStyle;rounded=0;orthogonalLoop=1;jettySize=auto;html=1;exitX=1;exitY=0.5;exitDx=0;exitDy=0;exitPerimeter=0;" parent="1" source="DbCk00pHNb_Lc_L89BAW-103" target="DbCk00pHNb_Lc_L89BAW-105" edge="1">
          <mxGeometry relative="1" as="geometry"/>
        </mxCell>
        <mxCell id="DbCk00pHNb_Lc_L89BAW-109" style="edgeStyle=orthogonalEdgeStyle;rounded=0;orthogonalLoop=1;jettySize=auto;html=1;exitX=0.5;exitY=1;exitDx=0;exitDy=0;exitPerimeter=0;" parent="1" source="DbCk00pHNb_Lc_L89BAW-103" edge="1">
          <mxGeometry relative="1" as="geometry">
            <mxPoint x="561" y="-1140" as="targetPoint"/>
          </mxGeometry>
        </mxCell>
        <mxCell id="DbCk00pHNb_Lc_L89BAW-103" value="查看厨房是否有出单" style="shape=mxgraph.flowchart.decision;strokeWidth=2;gradientColor=none;gradientDirection=north;fontStyle=0;html=1;" parent="1" vertex="1">
          <mxGeometry x="501" y="-1227" width="119" height="70" as="geometry"/>
        </mxCell>
        <mxCell id="DbCk00pHNb_Lc_L89BAW-105" value="end" style="shape=mxgraph.flowchart.terminator;strokeWidth=2;gradientColor=none;gradientDirection=north;fontStyle=0;html=1;" parent="1" vertex="1">
          <mxGeometry x="660" y="-1207" width="120" height="30" as="geometry"/>
        </mxCell>
        <mxCell id="DbCk00pHNb_Lc_L89BAW-114" style="edgeStyle=orthogonalEdgeStyle;rounded=0;orthogonalLoop=1;jettySize=auto;html=1;exitX=0.5;exitY=1;exitDx=0;exitDy=0;exitPerimeter=0;entryX=0.5;entryY=0;entryDx=0;entryDy=0;entryPerimeter=0;" parent="1" source="DbCk00pHNb_Lc_L89BAW-107" target="DbCk00pHNb_Lc_L89BAW-111" edge="1">
          <mxGeometry relative="1" as="geometry"/>
        </mxCell>
        <mxCell id="DbCk00pHNb_Lc_L89BAW-107" value="获取配置点值：&lt;br&gt;kvsAuthOrise" style="shape=mxgraph.flowchart.data;strokeWidth=2;gradientColor=none;gradientDirection=north;fontStyle=0;html=1;" parent="1" vertex="1">
          <mxGeometry x="480" y="-1137" width="170" height="37" as="geometry"/>
        </mxCell>
        <mxCell id="DbCk00pHNb_Lc_L89BAW-117" style="edgeStyle=orthogonalEdgeStyle;rounded=0;orthogonalLoop=1;jettySize=auto;html=1;exitX=0.5;exitY=1;exitDx=0;exitDy=0;exitPerimeter=0;" parent="1" source="DbCk00pHNb_Lc_L89BAW-110" target="DbCk00pHNb_Lc_L89BAW-116" edge="1">
          <mxGeometry relative="1" as="geometry"/>
        </mxCell>
        <mxCell id="DbCk00pHNb_Lc_L89BAW-110" value="acctid = isjCode" style="shape=mxgraph.flowchart.data;strokeWidth=2;gradientColor=none;gradientDirection=north;fontStyle=0;html=1;" parent="1" vertex="1">
          <mxGeometry x="480" y="-990" width="170" height="46" as="geometry"/>
        </mxCell>
        <mxCell id="DbCk00pHNb_Lc_L89BAW-115" style="edgeStyle=orthogonalEdgeStyle;rounded=0;orthogonalLoop=1;jettySize=auto;html=1;exitX=0.5;exitY=0.9;exitDx=0;exitDy=0;exitPerimeter=0;" parent="1" source="DbCk00pHNb_Lc_L89BAW-111" target="DbCk00pHNb_Lc_L89BAW-110" edge="1">
          <mxGeometry relative="1" as="geometry"/>
        </mxCell>
        <mxCell id="DbCk00pHNb_Lc_L89BAW-111" value="中间有一堆逻辑判断，&lt;br&gt;但是不合符判断条件" style="shape=mxgraph.flowchart.document;strokeWidth=2;gradientColor=none;gradientDirection=north;fontStyle=0;html=1;" parent="1" vertex="1">
          <mxGeometry x="485.5" y="-1076" width="159" height="68" as="geometry"/>
        </mxCell>
        <mxCell id="DbCk00pHNb_Lc_L89BAW-121" style="edgeStyle=orthogonalEdgeStyle;rounded=0;orthogonalLoop=1;jettySize=auto;html=1;exitX=0.5;exitY=1;exitDx=0;exitDy=0;exitPerimeter=0;" parent="1" source="DbCk00pHNb_Lc_L89BAW-116" target="DbCk00pHNb_Lc_L89BAW-119" edge="1">
          <mxGeometry relative="1" as="geometry"/>
        </mxCell>
        <mxCell id="DbCk00pHNb_Lc_L89BAW-116" value="state = httReasonstong" style="shape=mxgraph.flowchart.data;strokeWidth=2;gradientColor=none;gradientDirection=north;fontStyle=0;html=1;" parent="1" vertex="1">
          <mxGeometry x="480" y="-920" width="170" height="46" as="geometry"/>
        </mxCell>
        <mxCell id="DbCk00pHNb_Lc_L89BAW-118" value="Y" style="edgeStyle=orthogonalEdgeStyle;rounded=0;orthogonalLoop=1;jettySize=auto;html=1;exitX=1;exitY=0.5;exitDx=0;exitDy=0;exitPerimeter=0;" parent="1" source="DbCk00pHNb_Lc_L89BAW-119" target="DbCk00pHNb_Lc_L89BAW-120" edge="1">
          <mxGeometry relative="1" as="geometry"/>
        </mxCell>
        <mxCell id="DbCk00pHNb_Lc_L89BAW-123" value="N" style="edgeStyle=orthogonalEdgeStyle;rounded=0;orthogonalLoop=1;jettySize=auto;html=1;exitX=0.5;exitY=1;exitDx=0;exitDy=0;exitPerimeter=0;entryX=0.5;entryY=0;entryDx=0;entryDy=0;entryPerimeter=0;" parent="1" source="DbCk00pHNb_Lc_L89BAW-119" target="DbCk00pHNb_Lc_L89BAW-122" edge="1">
          <mxGeometry relative="1" as="geometry"/>
        </mxCell>
        <mxCell id="DbCk00pHNb_Lc_L89BAW-119" value="是否打印" style="shape=mxgraph.flowchart.decision;strokeWidth=2;gradientColor=none;gradientDirection=north;fontStyle=0;html=1;" parent="1" vertex="1">
          <mxGeometry x="501" y="-850" width="125" height="40" as="geometry"/>
        </mxCell>
        <mxCell id="DbCk00pHNb_Lc_L89BAW-120" value="end" style="shape=mxgraph.flowchart.terminator;strokeWidth=2;gradientColor=none;gradientDirection=north;fontStyle=0;html=1;" parent="1" vertex="1">
          <mxGeometry x="655" y="-845" width="120" height="30" as="geometry"/>
        </mxCell>
        <mxCell id="DbCk00pHNb_Lc_L89BAW-125" style="edgeStyle=orthogonalEdgeStyle;rounded=0;orthogonalLoop=1;jettySize=auto;html=1;exitX=0.5;exitY=0.9;exitDx=0;exitDy=0;exitPerimeter=0;entryX=0.5;entryY=0;entryDx=0;entryDy=0;entryPerimeter=0;" parent="1" source="DbCk00pHNb_Lc_L89BAW-122" target="DbCk00pHNb_Lc_L89BAW-124" edge="1">
          <mxGeometry relative="1" as="geometry">
            <Array as="points">
              <mxPoint x="561" y="-730"/>
              <mxPoint x="790" y="-730"/>
              <mxPoint x="790" y="-1597"/>
              <mxPoint x="895" y="-1597"/>
            </Array>
          </mxGeometry>
        </mxCell>
        <mxCell id="DbCk00pHNb_Lc_L89BAW-122" value="核心逻辑处理" style="shape=mxgraph.flowchart.document;strokeWidth=2;gradientColor=none;gradientDirection=north;fontStyle=0;html=1;" parent="1" vertex="1">
          <mxGeometry x="481" y="-790" width="159" height="50" as="geometry"/>
        </mxCell>
        <mxCell id="DbCk00pHNb_Lc_L89BAW-137" style="edgeStyle=orthogonalEdgeStyle;rounded=0;orthogonalLoop=1;jettySize=auto;html=1;exitX=0.5;exitY=1;exitDx=0;exitDy=0;exitPerimeter=0;" parent="1" source="DbCk00pHNb_Lc_L89BAW-124" target="DbCk00pHNb_Lc_L89BAW-126" edge="1">
          <mxGeometry relative="1" as="geometry"/>
        </mxCell>
        <mxCell id="DbCk00pHNb_Lc_L89BAW-124" value="开启事物" style="shape=mxgraph.flowchart.data;strokeWidth=2;gradientColor=none;gradientDirection=north;fontStyle=0;html=1;" parent="1" vertex="1">
          <mxGeometry x="810" y="-1577" width="170" height="46" as="geometry"/>
        </mxCell>
        <mxCell id="DbCk00pHNb_Lc_L89BAW-138" style="edgeStyle=orthogonalEdgeStyle;rounded=0;orthogonalLoop=1;jettySize=auto;html=1;exitX=0.5;exitY=1;exitDx=0;exitDy=0;exitPerimeter=0;entryX=0.5;entryY=0;entryDx=0;entryDy=0;entryPerimeter=0;" parent="1" source="DbCk00pHNb_Lc_L89BAW-126" target="DbCk00pHNb_Lc_L89BAW-127" edge="1">
          <mxGeometry relative="1" as="geometry"/>
        </mxCell>
        <mxCell id="DbCk00pHNb_Lc_L89BAW-126" value="插入delBills" style="shape=mxgraph.flowchart.data;strokeWidth=2;gradientColor=none;gradientDirection=north;fontStyle=0;html=1;" parent="1" vertex="1">
          <mxGeometry x="810" y="-1509" width="170" height="46" as="geometry"/>
        </mxCell>
        <mxCell id="DbCk00pHNb_Lc_L89BAW-139" style="edgeStyle=orthogonalEdgeStyle;rounded=0;orthogonalLoop=1;jettySize=auto;html=1;exitX=0.5;exitY=1;exitDx=0;exitDy=0;exitPerimeter=0;" parent="1" source="DbCk00pHNb_Lc_L89BAW-127" edge="1">
          <mxGeometry relative="1" as="geometry">
            <mxPoint x="895" y="-1350" as="targetPoint"/>
          </mxGeometry>
        </mxCell>
        <mxCell id="DbCk00pHNb_Lc_L89BAW-127" value="if(未损) 修改估清表" style="shape=mxgraph.flowchart.data;strokeWidth=2;gradientColor=none;gradientDirection=north;fontStyle=0;html=1;" parent="1" vertex="1">
          <mxGeometry x="810" y="-1430" width="170" height="46" as="geometry"/>
        </mxCell>
        <mxCell id="DbCk00pHNb_Lc_L89BAW-140" style="edgeStyle=orthogonalEdgeStyle;rounded=0;orthogonalLoop=1;jettySize=auto;html=1;exitX=0.5;exitY=1;exitDx=0;exitDy=0;exitPerimeter=0;entryX=0.5;entryY=0;entryDx=0;entryDy=0;entryPerimeter=0;" parent="1" source="DbCk00pHNb_Lc_L89BAW-128" target="DbCk00pHNb_Lc_L89BAW-129" edge="1">
          <mxGeometry relative="1" as="geometry"/>
        </mxCell>
        <mxCell id="DbCk00pHNb_Lc_L89BAW-128" value="删除菜品表" style="shape=mxgraph.flowchart.data;strokeWidth=2;gradientColor=none;gradientDirection=north;fontStyle=0;html=1;" parent="1" vertex="1">
          <mxGeometry x="810" y="-1349" width="170" height="46" as="geometry"/>
        </mxCell>
        <mxCell id="DbCk00pHNb_Lc_L89BAW-141" style="edgeStyle=orthogonalEdgeStyle;rounded=0;orthogonalLoop=1;jettySize=auto;html=1;exitX=0.5;exitY=1;exitDx=0;exitDy=0;exitPerimeter=0;entryX=0.5;entryY=0;entryDx=0;entryDy=0;entryPerimeter=0;" parent="1" source="DbCk00pHNb_Lc_L89BAW-129" target="DbCk00pHNb_Lc_L89BAW-130" edge="1">
          <mxGeometry relative="1" as="geometry"/>
        </mxCell>
        <mxCell id="DbCk00pHNb_Lc_L89BAW-129" value="删除菜品已删除表" style="shape=mxgraph.flowchart.data;strokeWidth=2;gradientColor=none;gradientDirection=north;fontStyle=0;html=1;" parent="1" vertex="1">
          <mxGeometry x="810" y="-1277" width="170" height="46" as="geometry"/>
        </mxCell>
        <mxCell id="DbCk00pHNb_Lc_L89BAW-143" style="edgeStyle=orthogonalEdgeStyle;rounded=0;orthogonalLoop=1;jettySize=auto;html=1;exitX=0.5;exitY=1;exitDx=0;exitDy=0;exitPerimeter=0;entryX=0.5;entryY=0;entryDx=0;entryDy=0;entryPerimeter=0;" parent="1" source="DbCk00pHNb_Lc_L89BAW-130" target="DbCk00pHNb_Lc_L89BAW-131" edge="1">
          <mxGeometry relative="1" as="geometry"/>
        </mxCell>
        <mxCell id="DbCk00pHNb_Lc_L89BAW-130" value="删除one_mis表" style="shape=mxgraph.flowchart.data;strokeWidth=2;gradientColor=none;gradientDirection=north;fontStyle=0;html=1;" parent="1" vertex="1">
          <mxGeometry x="810" y="-1203" width="170" height="46" as="geometry"/>
        </mxCell>
        <mxCell id="DbCk00pHNb_Lc_L89BAW-144" style="edgeStyle=orthogonalEdgeStyle;rounded=0;orthogonalLoop=1;jettySize=auto;html=1;exitX=0.5;exitY=1;exitDx=0;exitDy=0;exitPerimeter=0;" parent="1" source="DbCk00pHNb_Lc_L89BAW-131" edge="1">
          <mxGeometry relative="1" as="geometry">
            <mxPoint x="895" y="-1060" as="targetPoint"/>
          </mxGeometry>
        </mxCell>
        <mxCell id="DbCk00pHNb_Lc_L89BAW-131" value="删除sublist表" style="shape=mxgraph.flowchart.data;strokeWidth=2;gradientColor=none;gradientDirection=north;fontStyle=0;html=1;" parent="1" vertex="1">
          <mxGeometry x="810" y="-1129" width="170" height="46" as="geometry"/>
        </mxCell>
        <mxCell id="DbCk00pHNb_Lc_L89BAW-145" style="edgeStyle=orthogonalEdgeStyle;rounded=0;orthogonalLoop=1;jettySize=auto;html=1;exitX=0.5;exitY=1;exitDx=0;exitDy=0;exitPerimeter=0;entryX=0.5;entryY=0;entryDx=0;entryDy=0;entryPerimeter=0;" parent="1" source="DbCk00pHNb_Lc_L89BAW-132" target="DbCk00pHNb_Lc_L89BAW-133" edge="1">
          <mxGeometry relative="1" as="geometry"/>
        </mxCell>
        <mxCell id="DbCk00pHNb_Lc_L89BAW-132" value="删除fujia表" style="shape=mxgraph.flowchart.data;strokeWidth=2;gradientColor=none;gradientDirection=north;fontStyle=0;html=1;" parent="1" vertex="1">
          <mxGeometry x="810" y="-1056" width="170" height="46" as="geometry"/>
        </mxCell>
        <mxCell id="DbCk00pHNb_Lc_L89BAW-146" style="edgeStyle=orthogonalEdgeStyle;rounded=0;orthogonalLoop=1;jettySize=auto;html=1;exitX=0.5;exitY=1;exitDx=0;exitDy=0;exitPerimeter=0;entryX=0.5;entryY=0;entryDx=0;entryDy=0;entryPerimeter=0;" parent="1" source="DbCk00pHNb_Lc_L89BAW-133" target="DbCk00pHNb_Lc_L89BAW-134" edge="1">
          <mxGeometry relative="1" as="geometry"/>
        </mxCell>
        <mxCell id="DbCk00pHNb_Lc_L89BAW-133" value="删除relation表" style="shape=mxgraph.flowchart.data;strokeWidth=2;gradientColor=none;gradientDirection=north;fontStyle=0;html=1;" parent="1" vertex="1">
          <mxGeometry x="810" y="-982" width="170" height="46" as="geometry"/>
        </mxCell>
        <mxCell id="DbCk00pHNb_Lc_L89BAW-147" style="edgeStyle=orthogonalEdgeStyle;rounded=0;orthogonalLoop=1;jettySize=auto;html=1;exitX=0.5;exitY=1;exitDx=0;exitDy=0;exitPerimeter=0;" parent="1" source="DbCk00pHNb_Lc_L89BAW-134" edge="1">
          <mxGeometry relative="1" as="geometry">
            <mxPoint x="895" y="-840" as="targetPoint"/>
          </mxGeometry>
        </mxCell>
        <mxCell id="DbCk00pHNb_Lc_L89BAW-134" value="界面操作" style="shape=mxgraph.flowchart.data;strokeWidth=2;gradientColor=none;gradientDirection=north;fontStyle=0;html=1;" parent="1" vertex="1">
          <mxGeometry x="810" y="-910" width="170" height="46" as="geometry"/>
        </mxCell>
        <mxCell id="DbCk00pHNb_Lc_L89BAW-203" style="edgeStyle=orthogonalEdgeStyle;rounded=0;orthogonalLoop=1;jettySize=auto;html=1;exitX=0.5;exitY=1;exitDx=0;exitDy=0;exitPerimeter=0;entryX=0.5;entryY=0;entryDx=0;entryDy=0;entryPerimeter=0;" parent="1" source="DbCk00pHNb_Lc_L89BAW-135" target="DbCk00pHNb_Lc_L89BAW-193" edge="1">
          <mxGeometry relative="1" as="geometry"/>
        </mxCell>
        <mxCell id="DbCk00pHNb_Lc_L89BAW-135" value="事物提交" style="shape=mxgraph.flowchart.data;strokeWidth=2;gradientColor=none;gradientDirection=north;fontStyle=0;html=1;" parent="1" vertex="1">
          <mxGeometry x="810" y="-838" width="170" height="46" as="geometry"/>
        </mxCell>
        <mxCell id="DbCk00pHNb_Lc_L89BAW-176" style="edgeStyle=orthogonalEdgeStyle;rounded=0;orthogonalLoop=1;jettySize=auto;html=1;exitX=0.905;exitY=0.5;exitDx=0;exitDy=0;exitPerimeter=0;entryX=0;entryY=0.5;entryDx=0;entryDy=0;entryPerimeter=0;" parent="1" target="DbCk00pHNb_Lc_L89BAW-184" edge="1">
          <mxGeometry relative="1" as="geometry">
            <mxPoint x="285" y="-496" as="sourcePoint"/>
          </mxGeometry>
        </mxCell>
        <mxCell id="DbCk00pHNb_Lc_L89BAW-177" style="edgeStyle=orthogonalEdgeStyle;rounded=0;orthogonalLoop=1;jettySize=auto;html=1;exitX=0.905;exitY=0.5;exitDx=0;exitDy=0;exitPerimeter=0;entryX=0;entryY=0.5;entryDx=0;entryDy=0;entryPerimeter=0;" parent="1" target="DbCk00pHNb_Lc_L89BAW-185" edge="1">
          <mxGeometry relative="1" as="geometry">
            <mxPoint x="285" y="-417" as="sourcePoint"/>
          </mxGeometry>
        </mxCell>
        <mxCell id="DbCk00pHNb_Lc_L89BAW-178" style="edgeStyle=orthogonalEdgeStyle;rounded=0;orthogonalLoop=1;jettySize=auto;html=1;exitX=0.905;exitY=0.5;exitDx=0;exitDy=0;exitPerimeter=0;entryX=0;entryY=0.5;entryDx=0;entryDy=0;entryPerimeter=0;" parent="1" target="DbCk00pHNb_Lc_L89BAW-186" edge="1">
          <mxGeometry relative="1" as="geometry">
            <mxPoint x="285" y="-336" as="sourcePoint"/>
          </mxGeometry>
        </mxCell>
        <mxCell id="DbCk00pHNb_Lc_L89BAW-179" style="edgeStyle=orthogonalEdgeStyle;rounded=0;orthogonalLoop=1;jettySize=auto;html=1;exitX=0.905;exitY=0.5;exitDx=0;exitDy=0;exitPerimeter=0;" parent="1" target="DbCk00pHNb_Lc_L89BAW-187" edge="1">
          <mxGeometry relative="1" as="geometry">
            <mxPoint x="285" y="-264" as="sourcePoint"/>
          </mxGeometry>
        </mxCell>
        <mxCell id="DbCk00pHNb_Lc_L89BAW-180" style="edgeStyle=orthogonalEdgeStyle;rounded=0;orthogonalLoop=1;jettySize=auto;html=1;exitX=0.905;exitY=0.5;exitDx=0;exitDy=0;exitPerimeter=0;entryX=0;entryY=0.5;entryDx=0;entryDy=0;entryPerimeter=0;" parent="1" target="DbCk00pHNb_Lc_L89BAW-188" edge="1">
          <mxGeometry relative="1" as="geometry">
            <mxPoint x="285" y="-190" as="sourcePoint"/>
          </mxGeometry>
        </mxCell>
        <mxCell id="DbCk00pHNb_Lc_L89BAW-181" style="edgeStyle=orthogonalEdgeStyle;rounded=0;orthogonalLoop=1;jettySize=auto;html=1;exitX=0.905;exitY=0.5;exitDx=0;exitDy=0;exitPerimeter=0;" parent="1" target="DbCk00pHNb_Lc_L89BAW-189" edge="1">
          <mxGeometry relative="1" as="geometry">
            <mxPoint x="285" y="-116" as="sourcePoint"/>
          </mxGeometry>
        </mxCell>
        <mxCell id="DbCk00pHNb_Lc_L89BAW-182" style="edgeStyle=orthogonalEdgeStyle;rounded=0;orthogonalLoop=1;jettySize=auto;html=1;exitX=0.905;exitY=0.5;exitDx=0;exitDy=0;exitPerimeter=0;entryX=0;entryY=0.5;entryDx=0;entryDy=0;entryPerimeter=0;" parent="1" target="DbCk00pHNb_Lc_L89BAW-190" edge="1">
          <mxGeometry relative="1" as="geometry">
            <mxPoint x="285" y="-43" as="sourcePoint"/>
          </mxGeometry>
        </mxCell>
        <mxCell id="DbCk00pHNb_Lc_L89BAW-183" style="edgeStyle=orthogonalEdgeStyle;rounded=0;orthogonalLoop=1;jettySize=auto;html=1;exitX=0.905;exitY=0.5;exitDx=0;exitDy=0;exitPerimeter=0;" parent="1" target="DbCk00pHNb_Lc_L89BAW-191" edge="1">
          <mxGeometry relative="1" as="geometry">
            <mxPoint x="285" y="31" as="sourcePoint"/>
          </mxGeometry>
        </mxCell>
        <mxCell id="DbCk00pHNb_Lc_L89BAW-184" value="delbills&lt;br&gt;alipay_operate" style="shape=mxgraph.flowchart.predefined_process;strokeWidth=2;gradientColor=none;gradientDirection=north;fontStyle=0;html=1;" parent="1" vertex="1">
          <mxGeometry x="351" y="-520" width="180" height="47" as="geometry"/>
        </mxCell>
        <mxCell id="DbCk00pHNb_Lc_L89BAW-185" value="handdevorder_mis&lt;br&gt;handdevprodutsublist&lt;br&gt;productslimitcnt" style="shape=mxgraph.flowchart.predefined_process;strokeWidth=2;gradientColor=none;gradientDirection=north;fontStyle=0;html=1;" parent="1" vertex="1">
          <mxGeometry x="351" y="-441.5" width="180" height="49" as="geometry"/>
        </mxCell>
        <mxCell id="DbCk00pHNb_Lc_L89BAW-186" value="handdevorder_mis&lt;br&gt;products" style="shape=mxgraph.flowchart.predefined_process;strokeWidth=2;gradientColor=none;gradientDirection=north;fontStyle=0;html=1;" parent="1" vertex="1">
          <mxGeometry x="351" y="-360" width="180" height="47" as="geometry"/>
        </mxCell>
        <mxCell id="DbCk00pHNb_Lc_L89BAW-187" value="handdevorder_mis_delete&lt;br&gt;products&lt;br&gt;handdevorder_mis" style="shape=mxgraph.flowchart.predefined_process;strokeWidth=2;gradientColor=none;gradientDirection=north;fontStyle=0;html=1;" parent="1" vertex="1">
          <mxGeometry x="351" y="-288" width="210" height="47" as="geometry"/>
        </mxCell>
        <mxCell id="DbCk00pHNb_Lc_L89BAW-188" value="handdevorder_one_mis&lt;br&gt;kitchenprintmessage" style="shape=mxgraph.flowchart.predefined_process;strokeWidth=2;gradientColor=none;gradientDirection=north;fontStyle=0;html=1;" parent="1" vertex="1">
          <mxGeometry x="351" y="-214.5" width="220" height="48" as="geometry"/>
        </mxCell>
        <mxCell id="DbCk00pHNb_Lc_L89BAW-189" value="handdevproductsublist" style="shape=mxgraph.flowchart.predefined_process;strokeWidth=2;gradientColor=none;gradientDirection=north;fontStyle=0;html=1;" parent="1" vertex="1">
          <mxGeometry x="351" y="-135" width="180" height="38" as="geometry"/>
        </mxCell>
        <mxCell id="DbCk00pHNb_Lc_L89BAW-190" value="handdevorder_fujia" style="shape=mxgraph.flowchart.predefined_process;strokeWidth=2;gradientColor=none;gradientDirection=north;fontStyle=0;html=1;" parent="1" vertex="1">
          <mxGeometry x="361" y="-61.5" width="180" height="37" as="geometry"/>
        </mxCell>
        <mxCell id="DbCk00pHNb_Lc_L89BAW-191" value="handdevtableorder_relation&lt;br&gt;handdevtableorder_relation&lt;br&gt;handdevsettlement&lt;br&gt;handspecialremark&lt;br&gt;storetables_mis" style="shape=mxgraph.flowchart.predefined_process;strokeWidth=2;gradientColor=none;gradientDirection=north;fontStyle=0;html=1;" parent="1" vertex="1">
          <mxGeometry x="351" width="230" height="100" as="geometry"/>
        </mxCell>
        <mxCell id="DbCk00pHNb_Lc_L89BAW-192" value="Text" style="text;html=1;align=center;verticalAlign=middle;resizable=0;points=[];;autosize=1;" parent="1" vertex="1">
          <mxGeometry x="450" y="-114" width="40" height="20" as="geometry"/>
        </mxCell>
        <mxCell id="DbCk00pHNb_Lc_L89BAW-195" style="edgeStyle=orthogonalEdgeStyle;rounded=0;orthogonalLoop=1;jettySize=auto;html=1;exitX=0.5;exitY=0.9;exitDx=0;exitDy=0;exitPerimeter=0;entryX=0.5;entryY=0;entryDx=0;entryDy=0;entryPerimeter=0;" parent="1" source="DbCk00pHNb_Lc_L89BAW-193" target="DbCk00pHNb_Lc_L89BAW-194" edge="1">
          <mxGeometry relative="1" as="geometry">
            <Array as="points">
              <mxPoint x="895" y="-720"/>
              <mxPoint x="1012" y="-720"/>
              <mxPoint x="1012" y="-1616"/>
              <mxPoint x="1110" y="-1616"/>
            </Array>
          </mxGeometry>
        </mxCell>
        <mxCell id="DbCk00pHNb_Lc_L89BAW-193" value="通知" style="shape=mxgraph.flowchart.document;strokeWidth=2;gradientColor=none;gradientDirection=north;fontStyle=0;html=1;" parent="1" vertex="1">
          <mxGeometry x="815.5" y="-780" width="159" height="50" as="geometry"/>
        </mxCell>
        <mxCell id="DbCk00pHNb_Lc_L89BAW-197" value="Y" style="edgeStyle=orthogonalEdgeStyle;rounded=0;orthogonalLoop=1;jettySize=auto;html=1;exitX=0.5;exitY=1;exitDx=0;exitDy=0;exitPerimeter=0;entryX=0.5;entryY=0;entryDx=0;entryDy=0;entryPerimeter=0;" parent="1" source="DbCk00pHNb_Lc_L89BAW-194" target="DbCk00pHNb_Lc_L89BAW-196" edge="1">
          <mxGeometry relative="1" as="geometry"/>
        </mxCell>
        <mxCell id="DbCk00pHNb_Lc_L89BAW-200" value="N" style="edgeStyle=orthogonalEdgeStyle;rounded=0;orthogonalLoop=1;jettySize=auto;html=1;exitX=1;exitY=0.5;exitDx=0;exitDy=0;exitPerimeter=0;entryX=0.5;entryY=0;entryDx=0;entryDy=0;entryPerimeter=0;" parent="1" source="DbCk00pHNb_Lc_L89BAW-194" target="DbCk00pHNb_Lc_L89BAW-198" edge="1">
          <mxGeometry relative="1" as="geometry">
            <Array as="points">
              <mxPoint x="1210" y="-1561"/>
              <mxPoint x="1210" y="-1440"/>
              <mxPoint x="1110" y="-1440"/>
            </Array>
          </mxGeometry>
        </mxCell>
        <mxCell id="DbCk00pHNb_Lc_L89BAW-194" value="订单来源：外送" style="shape=mxgraph.flowchart.decision;strokeWidth=2;gradientColor=none;gradientDirection=north;fontStyle=0;html=1;" parent="1" vertex="1">
          <mxGeometry x="1050" y="-1596" width="119" height="70" as="geometry"/>
        </mxCell>
        <mxCell id="DbCk00pHNb_Lc_L89BAW-199" value="Y" style="edgeStyle=orthogonalEdgeStyle;rounded=0;orthogonalLoop=1;jettySize=auto;html=1;exitX=0.5;exitY=1;exitDx=0;exitDy=0;exitPerimeter=0;entryX=0.5;entryY=0;entryDx=0;entryDy=0;entryPerimeter=0;" parent="1" source="DbCk00pHNb_Lc_L89BAW-196" target="DbCk00pHNb_Lc_L89BAW-198" edge="1">
          <mxGeometry relative="1" as="geometry"/>
        </mxCell>
        <mxCell id="DbCk00pHNb_Lc_L89BAW-196" value="专业外送模块&lt;br&gt;微信取消" style="shape=mxgraph.flowchart.data;strokeWidth=2;gradientColor=none;gradientDirection=north;fontStyle=0;html=1;" parent="1" vertex="1">
          <mxGeometry x="1024.5" y="-1497" width="170" height="46" as="geometry"/>
        </mxCell>
        <mxCell id="DbCk00pHNb_Lc_L89BAW-202" style="edgeStyle=orthogonalEdgeStyle;rounded=0;orthogonalLoop=1;jettySize=auto;html=1;exitX=0.5;exitY=1;exitDx=0;exitDy=0;exitPerimeter=0;entryX=0.5;entryY=0;entryDx=0;entryDy=0;entryPerimeter=0;" parent="1" source="DbCk00pHNb_Lc_L89BAW-198" target="DbCk00pHNb_Lc_L89BAW-201" edge="1">
          <mxGeometry relative="1" as="geometry"/>
        </mxCell>
        <mxCell id="DbCk00pHNb_Lc_L89BAW-198" value="修改取消菜品" style="shape=mxgraph.flowchart.data;strokeWidth=2;gradientColor=none;gradientDirection=north;fontStyle=0;html=1;" parent="1" vertex="1">
          <mxGeometry x="1024.5" y="-1422" width="170" height="46" as="geometry"/>
        </mxCell>
        <mxCell id="DbCk00pHNb_Lc_L89BAW-206" style="edgeStyle=orthogonalEdgeStyle;rounded=0;orthogonalLoop=1;jettySize=auto;html=1;exitX=0.5;exitY=1;exitDx=0;exitDy=0;exitPerimeter=0;entryX=0.5;entryY=0;entryDx=0;entryDy=0;entryPerimeter=0;" parent="1" source="DbCk00pHNb_Lc_L89BAW-201" target="DbCk00pHNb_Lc_L89BAW-204" edge="1">
          <mxGeometry relative="1" as="geometry"/>
        </mxCell>
        <mxCell id="DbCk00pHNb_Lc_L89BAW-201" value="将取消数据上传MQ" style="shape=mxgraph.flowchart.data;strokeWidth=2;gradientColor=none;gradientDirection=north;fontStyle=0;html=1;" parent="1" vertex="1">
          <mxGeometry x="1025" y="-1347" width="170" height="47" as="geometry"/>
        </mxCell>
        <mxCell id="DbCk00pHNb_Lc_L89BAW-207" value="Y" style="edgeStyle=orthogonalEdgeStyle;rounded=0;orthogonalLoop=1;jettySize=auto;html=1;exitX=0.5;exitY=1;exitDx=0;exitDy=0;exitPerimeter=0;entryX=0.5;entryY=0;entryDx=0;entryDy=0;entryPerimeter=0;" parent="1" source="DbCk00pHNb_Lc_L89BAW-204" target="DbCk00pHNb_Lc_L89BAW-205" edge="1">
          <mxGeometry relative="1" as="geometry"/>
        </mxCell>
        <mxCell id="DbCk00pHNb_Lc_L89BAW-210" value="N" style="edgeStyle=orthogonalEdgeStyle;rounded=0;orthogonalLoop=1;jettySize=auto;html=1;exitX=1;exitY=0.5;exitDx=0;exitDy=0;exitPerimeter=0;" parent="1" source="DbCk00pHNb_Lc_L89BAW-204" edge="1">
          <mxGeometry relative="1" as="geometry">
            <mxPoint x="1110" y="-1083" as="targetPoint"/>
            <Array as="points">
              <mxPoint x="1220" y="-1242"/>
              <mxPoint x="1220" y="-1130"/>
              <mxPoint x="1110" y="-1130"/>
            </Array>
          </mxGeometry>
        </mxCell>
        <mxCell id="DbCk00pHNb_Lc_L89BAW-204" value="订单来源：外送" style="shape=mxgraph.flowchart.decision;strokeWidth=2;gradientColor=none;gradientDirection=north;fontStyle=0;html=1;" parent="1" vertex="1">
          <mxGeometry x="1050" y="-1277" width="119" height="70" as="geometry"/>
        </mxCell>
        <mxCell id="DbCk00pHNb_Lc_L89BAW-209" value="Y" style="edgeStyle=orthogonalEdgeStyle;rounded=0;orthogonalLoop=1;jettySize=auto;html=1;exitX=0.5;exitY=1;exitDx=0;exitDy=0;exitPerimeter=0;entryX=0.5;entryY=0;entryDx=0;entryDy=0;entryPerimeter=0;" parent="1" source="DbCk00pHNb_Lc_L89BAW-205" edge="1">
          <mxGeometry relative="1" as="geometry">
            <mxPoint x="1110" y="-1083" as="targetPoint"/>
          </mxGeometry>
        </mxCell>
        <mxCell id="DbCk00pHNb_Lc_L89BAW-205" value="专业外送模块&lt;br&gt;微信取消" style="shape=mxgraph.flowchart.data;strokeWidth=2;gradientColor=none;gradientDirection=north;fontStyle=0;html=1;" parent="1" vertex="1">
          <mxGeometry x="1024.5" y="-1183" width="170" height="46" as="geometry"/>
        </mxCell>
        <mxCell id="DbCk00pHNb_Lc_L89BAW-213" value="Y" style="edgeStyle=orthogonalEdgeStyle;rounded=0;orthogonalLoop=1;jettySize=auto;html=1;exitX=1;exitY=0.5;exitDx=0;exitDy=0;exitPerimeter=0;" parent="1" source="DbCk00pHNb_Lc_L89BAW-211" target="DbCk00pHNb_Lc_L89BAW-212" edge="1">
          <mxGeometry relative="1" as="geometry"/>
        </mxCell>
        <mxCell id="DbCk00pHNb_Lc_L89BAW-215" value="N" style="edgeStyle=orthogonalEdgeStyle;rounded=0;orthogonalLoop=1;jettySize=auto;html=1;exitX=0.5;exitY=1;exitDx=0;exitDy=0;exitPerimeter=0;entryX=0.5;entryY=0;entryDx=0;entryDy=0;entryPerimeter=0;" parent="1" source="DbCk00pHNb_Lc_L89BAW-211" target="DbCk00pHNb_Lc_L89BAW-214" edge="1">
          <mxGeometry relative="1" as="geometry"/>
        </mxCell>
        <mxCell id="DbCk00pHNb_Lc_L89BAW-211" value="自助点餐" style="shape=mxgraph.flowchart.decision;strokeWidth=2;gradientColor=none;gradientDirection=north;fontStyle=0;html=1;" parent="1" vertex="1">
          <mxGeometry x="1050" y="-1083" width="119" height="70" as="geometry"/>
        </mxCell>
        <mxCell id="DbCk00pHNb_Lc_L89BAW-212" value="end" style="shape=mxgraph.flowchart.terminator;strokeWidth=2;gradientColor=none;gradientDirection=north;fontStyle=0;html=1;" parent="1" vertex="1">
          <mxGeometry x="1190" y="-1063" width="120" height="30" as="geometry"/>
        </mxCell>
        <mxCell id="DbCk00pHNb_Lc_L89BAW-217" style="edgeStyle=orthogonalEdgeStyle;rounded=0;orthogonalLoop=1;jettySize=auto;html=1;exitX=0.5;exitY=1;exitDx=0;exitDy=0;exitPerimeter=0;entryX=0.5;entryY=0;entryDx=0;entryDy=0;entryPerimeter=0;" parent="1" source="DbCk00pHNb_Lc_L89BAW-214" target="DbCk00pHNb_Lc_L89BAW-216" edge="1">
          <mxGeometry relative="1" as="geometry"/>
        </mxCell>
        <mxCell id="DbCk00pHNb_Lc_L89BAW-214" value="微信优惠券推送" style="shape=mxgraph.flowchart.data;strokeWidth=2;gradientColor=none;gradientDirection=north;fontStyle=0;html=1;" parent="1" vertex="1">
          <mxGeometry x="1025" y="-981" width="170" height="46" as="geometry"/>
        </mxCell>
        <mxCell id="DbCk00pHNb_Lc_L89BAW-219" value="N" style="edgeStyle=orthogonalEdgeStyle;rounded=0;orthogonalLoop=1;jettySize=auto;html=1;exitX=1;exitY=0.5;exitDx=0;exitDy=0;exitPerimeter=0;entryX=0;entryY=0.5;entryDx=0;entryDy=0;entryPerimeter=0;" parent="1" source="DbCk00pHNb_Lc_L89BAW-216" target="DbCk00pHNb_Lc_L89BAW-218" edge="1">
          <mxGeometry relative="1" as="geometry"/>
        </mxCell>
        <mxCell id="DbCk00pHNb_Lc_L89BAW-221" style="edgeStyle=orthogonalEdgeStyle;rounded=0;orthogonalLoop=1;jettySize=auto;html=1;exitX=0.5;exitY=1;exitDx=0;exitDy=0;exitPerimeter=0;entryX=0.5;entryY=0;entryDx=0;entryDy=0;entryPerimeter=0;" parent="1" source="DbCk00pHNb_Lc_L89BAW-216" target="DbCk00pHNb_Lc_L89BAW-220" edge="1">
          <mxGeometry relative="1" as="geometry"/>
        </mxCell>
        <mxCell id="DbCk00pHNb_Lc_L89BAW-216" value="点菜前使用优惠券" style="shape=mxgraph.flowchart.decision;strokeWidth=2;gradientColor=none;gradientDirection=north;fontStyle=0;html=1;" parent="1" vertex="1">
          <mxGeometry x="1050" y="-915" width="119" height="70" as="geometry"/>
        </mxCell>
        <mxCell id="DbCk00pHNb_Lc_L89BAW-218" value="end" style="shape=mxgraph.flowchart.terminator;strokeWidth=2;gradientColor=none;gradientDirection=north;fontStyle=0;html=1;" parent="1" vertex="1">
          <mxGeometry x="1194.5" y="-894" width="120" height="30" as="geometry"/>
        </mxCell>
        <mxCell id="DbCk00pHNb_Lc_L89BAW-224" style="edgeStyle=orthogonalEdgeStyle;rounded=0;orthogonalLoop=1;jettySize=auto;html=1;exitX=0.5;exitY=1;exitDx=0;exitDy=0;exitPerimeter=0;entryX=0.5;entryY=0;entryDx=0;entryDy=0;entryPerimeter=0;" parent="1" source="DbCk00pHNb_Lc_L89BAW-220" target="DbCk00pHNb_Lc_L89BAW-223" edge="1">
          <mxGeometry relative="1" as="geometry"/>
        </mxCell>
        <mxCell id="DbCk00pHNb_Lc_L89BAW-220" value="删除优惠券使用" style="shape=mxgraph.flowchart.data;strokeWidth=2;gradientColor=none;gradientDirection=north;fontStyle=0;html=1;" parent="1" vertex="1">
          <mxGeometry x="1025" y="-815" width="170" height="46" as="geometry"/>
        </mxCell>
        <mxCell id="DbCk00pHNb_Lc_L89BAW-222" value="end" style="shape=mxgraph.flowchart.terminator;strokeWidth=2;gradientColor=none;gradientDirection=north;fontStyle=0;html=1;" parent="1" vertex="1">
          <mxGeometry x="1050" y="-690" width="120" height="30" as="geometry"/>
        </mxCell>
        <mxCell id="DbCk00pHNb_Lc_L89BAW-225" style="edgeStyle=orthogonalEdgeStyle;rounded=0;orthogonalLoop=1;jettySize=auto;html=1;exitX=0.5;exitY=1;exitDx=0;exitDy=0;exitPerimeter=0;entryX=0.5;entryY=0;entryDx=0;entryDy=0;entryPerimeter=0;" parent="1" source="DbCk00pHNb_Lc_L89BAW-223" target="DbCk00pHNb_Lc_L89BAW-222" edge="1">
          <mxGeometry relative="1" as="geometry"/>
        </mxCell>
        <mxCell id="DbCk00pHNb_Lc_L89BAW-223" value="页面准备" style="shape=mxgraph.flowchart.data;strokeWidth=2;gradientColor=none;gradientDirection=north;fontStyle=0;html=1;" parent="1" vertex="1">
          <mxGeometry x="1025" y="-752.5" width="170" height="46" as="geometry"/>
        </mxCell>
        <mxCell id="ncrjSahqS253uzkElhbf-55" style="edgeStyle=orthogonalEdgeStyle;rounded=0;orthogonalLoop=1;jettySize=auto;html=1;exitX=0.5;exitY=1;exitDx=0;exitDy=0;exitPerimeter=0;" edge="1" parent="1" source="ncrjSahqS253uzkElhbf-56" target="ncrjSahqS253uzkElhbf-58">
          <mxGeometry relative="1" as="geometry"/>
        </mxCell>
        <mxCell id="ncrjSahqS253uzkElhbf-56" value="开启事物" style="shape=mxgraph.flowchart.data;strokeWidth=2;gradientColor=none;gradientDirection=north;fontStyle=0;html=1;" vertex="1" parent="1">
          <mxGeometry x="130" y="-590" width="170" height="46" as="geometry"/>
        </mxCell>
        <mxCell id="ncrjSahqS253uzkElhbf-57" style="edgeStyle=orthogonalEdgeStyle;rounded=0;orthogonalLoop=1;jettySize=auto;html=1;exitX=0.5;exitY=1;exitDx=0;exitDy=0;exitPerimeter=0;entryX=0.5;entryY=0;entryDx=0;entryDy=0;entryPerimeter=0;" edge="1" parent="1" source="ncrjSahqS253uzkElhbf-58" target="ncrjSahqS253uzkElhbf-60">
          <mxGeometry relative="1" as="geometry"/>
        </mxCell>
        <mxCell id="ncrjSahqS253uzkElhbf-58" value="插入delBills" style="shape=mxgraph.flowchart.data;strokeWidth=2;gradientColor=none;gradientDirection=north;fontStyle=0;html=1;" vertex="1" parent="1">
          <mxGeometry x="130" y="-522" width="170" height="46" as="geometry"/>
        </mxCell>
        <mxCell id="ncrjSahqS253uzkElhbf-59" style="edgeStyle=orthogonalEdgeStyle;rounded=0;orthogonalLoop=1;jettySize=auto;html=1;exitX=0.5;exitY=1;exitDx=0;exitDy=0;exitPerimeter=0;" edge="1" parent="1" source="ncrjSahqS253uzkElhbf-60">
          <mxGeometry relative="1" as="geometry">
            <mxPoint x="215" y="-363" as="targetPoint"/>
          </mxGeometry>
        </mxCell>
        <mxCell id="ncrjSahqS253uzkElhbf-60" value="if(未损) 修改估清表" style="shape=mxgraph.flowchart.data;strokeWidth=2;gradientColor=none;gradientDirection=north;fontStyle=0;html=1;" vertex="1" parent="1">
          <mxGeometry x="130" y="-443" width="170" height="46" as="geometry"/>
        </mxCell>
        <mxCell id="ncrjSahqS253uzkElhbf-61" style="edgeStyle=orthogonalEdgeStyle;rounded=0;orthogonalLoop=1;jettySize=auto;html=1;exitX=0.5;exitY=1;exitDx=0;exitDy=0;exitPerimeter=0;entryX=0.5;entryY=0;entryDx=0;entryDy=0;entryPerimeter=0;" edge="1" parent="1" source="ncrjSahqS253uzkElhbf-62" target="ncrjSahqS253uzkElhbf-64">
          <mxGeometry relative="1" as="geometry"/>
        </mxCell>
        <mxCell id="ncrjSahqS253uzkElhbf-62" value="删除菜品表" style="shape=mxgraph.flowchart.data;strokeWidth=2;gradientColor=none;gradientDirection=north;fontStyle=0;html=1;" vertex="1" parent="1">
          <mxGeometry x="130" y="-362" width="170" height="46" as="geometry"/>
        </mxCell>
        <mxCell id="ncrjSahqS253uzkElhbf-63" style="edgeStyle=orthogonalEdgeStyle;rounded=0;orthogonalLoop=1;jettySize=auto;html=1;exitX=0.5;exitY=1;exitDx=0;exitDy=0;exitPerimeter=0;entryX=0.5;entryY=0;entryDx=0;entryDy=0;entryPerimeter=0;" edge="1" parent="1" source="ncrjSahqS253uzkElhbf-64" target="ncrjSahqS253uzkElhbf-66">
          <mxGeometry relative="1" as="geometry"/>
        </mxCell>
        <mxCell id="ncrjSahqS253uzkElhbf-64" value="删除菜品已删除表" style="shape=mxgraph.flowchart.data;strokeWidth=2;gradientColor=none;gradientDirection=north;fontStyle=0;html=1;" vertex="1" parent="1">
          <mxGeometry x="130" y="-290" width="170" height="46" as="geometry"/>
        </mxCell>
        <mxCell id="ncrjSahqS253uzkElhbf-65" style="edgeStyle=orthogonalEdgeStyle;rounded=0;orthogonalLoop=1;jettySize=auto;html=1;exitX=0.5;exitY=1;exitDx=0;exitDy=0;exitPerimeter=0;entryX=0.5;entryY=0;entryDx=0;entryDy=0;entryPerimeter=0;" edge="1" parent="1" source="ncrjSahqS253uzkElhbf-66" target="ncrjSahqS253uzkElhbf-68">
          <mxGeometry relative="1" as="geometry"/>
        </mxCell>
        <mxCell id="ncrjSahqS253uzkElhbf-66" value="删除one_mis表" style="shape=mxgraph.flowchart.data;strokeWidth=2;gradientColor=none;gradientDirection=north;fontStyle=0;html=1;" vertex="1" parent="1">
          <mxGeometry x="130" y="-216" width="170" height="46" as="geometry"/>
        </mxCell>
        <mxCell id="ncrjSahqS253uzkElhbf-67" style="edgeStyle=orthogonalEdgeStyle;rounded=0;orthogonalLoop=1;jettySize=auto;html=1;exitX=0.5;exitY=1;exitDx=0;exitDy=0;exitPerimeter=0;" edge="1" parent="1" source="ncrjSahqS253uzkElhbf-68">
          <mxGeometry relative="1" as="geometry">
            <mxPoint x="215" y="-73" as="targetPoint"/>
          </mxGeometry>
        </mxCell>
        <mxCell id="ncrjSahqS253uzkElhbf-68" value="删除sublist表" style="shape=mxgraph.flowchart.data;strokeWidth=2;gradientColor=none;gradientDirection=north;fontStyle=0;html=1;" vertex="1" parent="1">
          <mxGeometry x="130" y="-142" width="170" height="46" as="geometry"/>
        </mxCell>
        <mxCell id="ncrjSahqS253uzkElhbf-69" style="edgeStyle=orthogonalEdgeStyle;rounded=0;orthogonalLoop=1;jettySize=auto;html=1;exitX=0.5;exitY=1;exitDx=0;exitDy=0;exitPerimeter=0;entryX=0.5;entryY=0;entryDx=0;entryDy=0;entryPerimeter=0;" edge="1" parent="1" source="ncrjSahqS253uzkElhbf-70" target="ncrjSahqS253uzkElhbf-72">
          <mxGeometry relative="1" as="geometry"/>
        </mxCell>
        <mxCell id="ncrjSahqS253uzkElhbf-70" value="删除fujia表" style="shape=mxgraph.flowchart.data;strokeWidth=2;gradientColor=none;gradientDirection=north;fontStyle=0;html=1;" vertex="1" parent="1">
          <mxGeometry x="130" y="-69" width="170" height="46" as="geometry"/>
        </mxCell>
        <mxCell id="ncrjSahqS253uzkElhbf-72" value="删除relation表" style="shape=mxgraph.flowchart.data;strokeWidth=2;gradientColor=none;gradientDirection=north;fontStyle=0;html=1;" vertex="1" parent="1">
          <mxGeometry x="130" y="5" width="170" height="46" as="geometry"/>
        </mxCell>
        <mxCell id="ncrjSahqS253uzkElhbf-73" style="edgeStyle=orthogonalEdgeStyle;rounded=0;orthogonalLoop=1;jettySize=auto;html=1;exitX=0.5;exitY=1;exitDx=0;exitDy=0;exitPerimeter=0;" edge="1" parent="1">
          <mxGeometry relative="1" as="geometry">
            <mxPoint x="210" y="74" as="targetPoint"/>
            <mxPoint x="210" y="50" as="sourcePoint"/>
          </mxGeometry>
        </mxCell>
        <mxCell id="ncrjSahqS253uzkElhbf-75" value="事物提交" style="shape=mxgraph.flowchart.data;strokeWidth=2;gradientColor=none;gradientDirection=north;fontStyle=0;html=1;" vertex="1" parent="1">
          <mxGeometry x="125" y="76" width="170" height="46" as="geometry"/>
        </mxCell>
      </root>
    </mxGraphModel>
  </diagram>
</mxfile>
